<mxfile host="Electron" agent="Mozilla/5.0 (Macintosh; Intel Mac OS X 10_15_7) AppleWebKit/537.36 (KHTML, like Gecko) draw.io/25.0.2 Chrome/128.0.6613.186 Electron/32.2.5 Safari/537.36" version="25.0.2">
  <diagram name="Page-1" id="ItL1-tnndVhTNhc-6seZ">
    <mxGraphModel dx="1242" dy="878" grid="1" gridSize="10" guides="1" tooltips="1" connect="1" arrows="1" fold="1" page="1" pageScale="1" pageWidth="2336" pageHeight="1654" math="0" shadow="0">
      <root>
        <mxCell id="0" />
        <mxCell id="1" parent="0" />
        <mxCell id="N4C0Lz1YefWC-sI7x_0J-1" value="AWS Cloud" style="points=[[0,0],[0.25,0],[0.5,0],[0.75,0],[1,0],[1,0.25],[1,0.5],[1,0.75],[1,1],[0.75,1],[0.5,1],[0.25,1],[0,1],[0,0.75],[0,0.5],[0,0.25]];outlineConnect=0;gradientColor=none;html=1;whiteSpace=wrap;fontSize=12;fontStyle=0;container=1;pointerEvents=0;collapsible=0;recursiveResize=0;shape=mxgraph.aws4.group;grIcon=mxgraph.aws4.group_aws_cloud_alt;strokeColor=#232F3E;fillColor=none;verticalAlign=top;align=left;spacingLeft=30;fontColor=#232F3E;dashed=0;" parent="1" vertex="1">
          <mxGeometry x="160" y="160" width="840" height="640" as="geometry" />
        </mxCell>
        <mxCell id="N4C0Lz1YefWC-sI7x_0J-2" value="Shared Account" style="points=[[0,0],[0.25,0],[0.5,0],[0.75,0],[1,0],[1,0.25],[1,0.5],[1,0.75],[1,1],[0.75,1],[0.5,1],[0.25,1],[0,1],[0,0.75],[0,0.5],[0,0.25]];outlineConnect=0;gradientColor=none;html=1;whiteSpace=wrap;fontSize=12;fontStyle=0;container=1;pointerEvents=0;collapsible=0;recursiveResize=0;shape=mxgraph.aws4.group;grIcon=mxgraph.aws4.group_account;strokeColor=#CD2264;fillColor=none;verticalAlign=top;align=left;spacingLeft=30;fontColor=#CD2264;dashed=0;" parent="N4C0Lz1YefWC-sI7x_0J-1" vertex="1">
          <mxGeometry x="280" y="380" width="520" height="180" as="geometry" />
        </mxCell>
        <mxCell id="N4C0Lz1YefWC-sI7x_0J-13" value="Amazon ECR" style="sketch=0;outlineConnect=0;fontColor=#232F3E;gradientColor=none;strokeColor=#ffffff;fillColor=#232F3E;dashed=0;verticalLabelPosition=middle;verticalAlign=bottom;align=center;html=1;whiteSpace=wrap;fontSize=10;fontStyle=1;spacing=3;shape=mxgraph.aws4.productIcon;prIcon=mxgraph.aws4.ecr;" parent="N4C0Lz1YefWC-sI7x_0J-2" vertex="1">
          <mxGeometry x="400" y="40" width="80" height="100" as="geometry" />
        </mxCell>
        <mxCell id="N4C0Lz1YefWC-sI7x_0J-75" style="edgeStyle=none;rounded=0;orthogonalLoop=1;jettySize=auto;html=1;" parent="N4C0Lz1YefWC-sI7x_0J-2" source="N4C0Lz1YefWC-sI7x_0J-14" target="N4C0Lz1YefWC-sI7x_0J-76" edge="1">
          <mxGeometry relative="1" as="geometry">
            <mxPoint x="280" y="91.66666666666674" as="targetPoint" />
          </mxGeometry>
        </mxCell>
        <mxCell id="N4C0Lz1YefWC-sI7x_0J-14" value="AWS CodeCommit" style="sketch=0;outlineConnect=0;fontColor=#232F3E;gradientColor=none;strokeColor=#ffffff;fillColor=#232F3E;dashed=0;verticalLabelPosition=middle;verticalAlign=bottom;align=center;html=1;whiteSpace=wrap;fontSize=10;fontStyle=1;spacing=3;shape=mxgraph.aws4.productIcon;prIcon=mxgraph.aws4.codecommit;" parent="N4C0Lz1YefWC-sI7x_0J-2" vertex="1">
          <mxGeometry x="160" y="40" width="80" height="110" as="geometry" />
        </mxCell>
        <mxCell id="N4C0Lz1YefWC-sI7x_0J-15" value="AWS Secrets Manager" style="sketch=0;outlineConnect=0;fontColor=#232F3E;gradientColor=none;strokeColor=#ffffff;fillColor=#232F3E;dashed=0;verticalLabelPosition=middle;verticalAlign=bottom;align=center;html=1;whiteSpace=wrap;fontSize=10;fontStyle=1;spacing=3;shape=mxgraph.aws4.productIcon;prIcon=mxgraph.aws4.secrets_manager;" parent="N4C0Lz1YefWC-sI7x_0J-2" vertex="1">
          <mxGeometry x="40" y="40" width="80" height="110" as="geometry" />
        </mxCell>
        <mxCell id="N4C0Lz1YefWC-sI7x_0J-74" style="edgeStyle=none;rounded=0;orthogonalLoop=1;jettySize=auto;html=1;" parent="N4C0Lz1YefWC-sI7x_0J-2" edge="1">
          <mxGeometry relative="1" as="geometry">
            <mxPoint x="360" y="90" as="sourcePoint" />
            <mxPoint x="400" y="90" as="targetPoint" />
          </mxGeometry>
        </mxCell>
        <mxCell id="N4C0Lz1YefWC-sI7x_0J-76" value="AWS CodePipeline" style="sketch=0;outlineConnect=0;fontColor=#232F3E;gradientColor=none;strokeColor=#ffffff;fillColor=#232F3E;dashed=0;verticalLabelPosition=middle;verticalAlign=bottom;align=center;html=1;whiteSpace=wrap;fontSize=10;fontStyle=1;spacing=3;shape=mxgraph.aws4.productIcon;prIcon=mxgraph.aws4.codepipeline;" parent="N4C0Lz1YefWC-sI7x_0J-2" vertex="1">
          <mxGeometry x="280" y="40" width="80" height="110" as="geometry" />
        </mxCell>
        <mxCell id="N4C0Lz1YefWC-sI7x_0J-7" value="Workloads Account" style="points=[[0,0],[0.25,0],[0.5,0],[0.75,0],[1,0],[1,0.25],[1,0.5],[1,0.75],[1,1],[0.75,1],[0.5,1],[0.25,1],[0,1],[0,0.75],[0,0.5],[0,0.25]];outlineConnect=0;gradientColor=none;html=1;whiteSpace=wrap;fontSize=12;fontStyle=0;container=1;pointerEvents=0;collapsible=0;recursiveResize=0;shape=mxgraph.aws4.group;grIcon=mxgraph.aws4.group_account;strokeColor=#CD2264;fillColor=none;verticalAlign=top;align=left;spacingLeft=30;fontColor=#CD2264;dashed=0;" parent="N4C0Lz1YefWC-sI7x_0J-1" vertex="1">
          <mxGeometry x="280" y="40" width="520" height="260" as="geometry" />
        </mxCell>
        <mxCell id="N4C0Lz1YefWC-sI7x_0J-24" value="VPC" style="points=[[0,0],[0.25,0],[0.5,0],[0.75,0],[1,0],[1,0.25],[1,0.5],[1,0.75],[1,1],[0.75,1],[0.5,1],[0.25,1],[0,1],[0,0.75],[0,0.5],[0,0.25]];outlineConnect=0;gradientColor=none;html=1;whiteSpace=wrap;fontSize=12;fontStyle=0;container=1;pointerEvents=0;collapsible=0;recursiveResize=0;shape=mxgraph.aws4.group;grIcon=mxgraph.aws4.group_vpc2;strokeColor=#8C4FFF;fillColor=none;verticalAlign=top;align=left;spacingLeft=30;fontColor=#AAB7B8;dashed=0;" parent="N4C0Lz1YefWC-sI7x_0J-7" vertex="1">
          <mxGeometry x="20" y="30" width="480" height="210" as="geometry" />
        </mxCell>
        <mxCell id="N4C0Lz1YefWC-sI7x_0J-57" value="" style="edgeStyle=none;rounded=0;orthogonalLoop=1;jettySize=auto;html=1;" parent="N4C0Lz1YefWC-sI7x_0J-24" source="N4C0Lz1YefWC-sI7x_0J-21" target="N4C0Lz1YefWC-sI7x_0J-22" edge="1">
          <mxGeometry relative="1" as="geometry">
            <mxPoint x="260" y="105" as="targetPoint" />
          </mxGeometry>
        </mxCell>
        <mxCell id="N4C0Lz1YefWC-sI7x_0J-61" value="Forwards&lt;div&gt;Request&lt;/div&gt;" style="edgeLabel;html=1;align=center;verticalAlign=middle;resizable=0;points=[];" parent="N4C0Lz1YefWC-sI7x_0J-57" vertex="1" connectable="0">
          <mxGeometry x="-0.075" y="-1" relative="1" as="geometry">
            <mxPoint as="offset" />
          </mxGeometry>
        </mxCell>
        <mxCell id="N4C0Lz1YefWC-sI7x_0J-21" value="Application Load Balancer" style="sketch=0;outlineConnect=0;fontColor=#232F3E;gradientColor=none;strokeColor=#ffffff;fillColor=#232F3E;dashed=0;verticalLabelPosition=middle;verticalAlign=bottom;align=center;html=1;whiteSpace=wrap;fontSize=10;fontStyle=1;spacing=3;shape=mxgraph.aws4.productIcon;prIcon=mxgraph.aws4.application_load_balancer;" parent="N4C0Lz1YefWC-sI7x_0J-24" vertex="1">
          <mxGeometry x="100" y="50" width="80" height="110" as="geometry" />
        </mxCell>
        <mxCell id="N4C0Lz1YefWC-sI7x_0J-22" value="Amazon ECS" style="sketch=0;outlineConnect=0;fontColor=#232F3E;gradientColor=none;strokeColor=#ffffff;fillColor=#232F3E;dashed=0;verticalLabelPosition=middle;verticalAlign=bottom;align=center;html=1;whiteSpace=wrap;fontSize=10;fontStyle=1;spacing=3;shape=mxgraph.aws4.productIcon;prIcon=mxgraph.aws4.ecs;" parent="N4C0Lz1YefWC-sI7x_0J-24" vertex="1">
          <mxGeometry x="300" y="50" width="80" height="100" as="geometry" />
        </mxCell>
        <mxCell id="N4C0Lz1YefWC-sI7x_0J-3" value="Core Account" style="points=[[0,0],[0.25,0],[0.5,0],[0.75,0],[1,0],[1,0.25],[1,0.5],[1,0.75],[1,1],[0.75,1],[0.5,1],[0.25,1],[0,1],[0,0.75],[0,0.5],[0,0.25]];outlineConnect=0;gradientColor=none;html=1;whiteSpace=wrap;fontSize=12;fontStyle=0;container=1;pointerEvents=0;collapsible=0;recursiveResize=0;shape=mxgraph.aws4.group;grIcon=mxgraph.aws4.group_account;strokeColor=#CD2264;fillColor=none;verticalAlign=top;align=left;spacingLeft=30;fontColor=#CD2264;dashed=0;" parent="N4C0Lz1YefWC-sI7x_0J-1" vertex="1">
          <mxGeometry x="40" y="40" width="160" height="520" as="geometry" />
        </mxCell>
        <mxCell id="N4C0Lz1YefWC-sI7x_0J-8" value="AWS CodePipeline" style="sketch=0;outlineConnect=0;fontColor=#232F3E;gradientColor=none;strokeColor=#ffffff;fillColor=#232F3E;dashed=0;verticalLabelPosition=middle;verticalAlign=bottom;align=center;html=1;whiteSpace=wrap;fontSize=10;fontStyle=1;spacing=3;shape=mxgraph.aws4.productIcon;prIcon=mxgraph.aws4.codepipeline;" parent="N4C0Lz1YefWC-sI7x_0J-3" vertex="1">
          <mxGeometry x="40" y="375" width="80" height="110" as="geometry" />
        </mxCell>
        <mxCell id="N4C0Lz1YefWC-sI7x_0J-9" value="AWS CodeCommit" style="sketch=0;outlineConnect=0;fontColor=#232F3E;gradientColor=none;strokeColor=#ffffff;fillColor=#232F3E;dashed=0;verticalLabelPosition=middle;verticalAlign=bottom;align=center;html=1;whiteSpace=wrap;fontSize=10;fontStyle=1;spacing=3;shape=mxgraph.aws4.productIcon;prIcon=mxgraph.aws4.codecommit;" parent="N4C0Lz1YefWC-sI7x_0J-3" vertex="1">
          <mxGeometry x="40" y="40" width="80" height="110" as="geometry" />
        </mxCell>
        <mxCell id="N4C0Lz1YefWC-sI7x_0J-69" style="edgeStyle=none;rounded=0;orthogonalLoop=1;jettySize=auto;html=1;" parent="N4C0Lz1YefWC-sI7x_0J-3" source="N4C0Lz1YefWC-sI7x_0J-68" target="N4C0Lz1YefWC-sI7x_0J-8" edge="1">
          <mxGeometry relative="1" as="geometry" />
        </mxCell>
        <mxCell id="N4C0Lz1YefWC-sI7x_0J-70" value="Triggers Pipeline" style="edgeLabel;html=1;align=center;verticalAlign=middle;resizable=0;points=[];" parent="N4C0Lz1YefWC-sI7x_0J-69" vertex="1" connectable="0">
          <mxGeometry x="-0.1838" y="-3" relative="1" as="geometry">
            <mxPoint as="offset" />
          </mxGeometry>
        </mxCell>
        <mxCell id="N4C0Lz1YefWC-sI7x_0J-68" value="" style="sketch=0;points=[[0,0,0],[0.25,0,0],[0.5,0,0],[0.75,0,0],[1,0,0],[0,1,0],[0.25,1,0],[0.5,1,0],[0.75,1,0],[1,1,0],[0,0.25,0],[0,0.5,0],[0,0.75,0],[1,0.25,0],[1,0.5,0],[1,0.75,0]];outlineConnect=0;fontColor=#232F3E;fillColor=#E7157B;strokeColor=#ffffff;dashed=0;verticalLabelPosition=bottom;verticalAlign=top;align=center;html=1;fontSize=12;fontStyle=0;aspect=fixed;shape=mxgraph.aws4.resourceIcon;resIcon=mxgraph.aws4.eventbridge;" parent="N4C0Lz1YefWC-sI7x_0J-3" vertex="1">
          <mxGeometry x="42" y="221" width="78" height="78" as="geometry" />
        </mxCell>
        <mxCell id="N4C0Lz1YefWC-sI7x_0J-37" style="edgeStyle=none;rounded=0;orthogonalLoop=1;jettySize=auto;html=1;exitX=0.5;exitY=0;exitDx=0;exitDy=0;exitPerimeter=0;" parent="N4C0Lz1YefWC-sI7x_0J-3" source="N4C0Lz1YefWC-sI7x_0J-68" target="N4C0Lz1YefWC-sI7x_0J-9" edge="1">
          <mxGeometry relative="1" as="geometry" />
        </mxCell>
        <mxCell id="N4C0Lz1YefWC-sI7x_0J-38" value="Change Rule" style="edgeLabel;html=1;align=center;verticalAlign=middle;resizable=0;points=[];" parent="N4C0Lz1YefWC-sI7x_0J-37" vertex="1" connectable="0">
          <mxGeometry x="0.04" y="-1" relative="1" as="geometry">
            <mxPoint as="offset" />
          </mxGeometry>
        </mxCell>
        <mxCell id="N4C0Lz1YefWC-sI7x_0J-10" style="edgeStyle=none;rounded=0;orthogonalLoop=1;jettySize=auto;html=1;exitX=1;exitY=1;exitDx=0;exitDy=0;" parent="N4C0Lz1YefWC-sI7x_0J-1" source="N4C0Lz1YefWC-sI7x_0J-3" target="N4C0Lz1YefWC-sI7x_0J-3" edge="1">
          <mxGeometry relative="1" as="geometry" />
        </mxCell>
        <mxCell id="N4C0Lz1YefWC-sI7x_0J-59" style="edgeStyle=none;rounded=0;orthogonalLoop=1;jettySize=auto;html=1;" parent="N4C0Lz1YefWC-sI7x_0J-1" source="N4C0Lz1YefWC-sI7x_0J-22" target="N4C0Lz1YefWC-sI7x_0J-13" edge="1">
          <mxGeometry relative="1" as="geometry" />
        </mxCell>
        <mxCell id="N4C0Lz1YefWC-sI7x_0J-60" value="Pull Docker Image" style="edgeLabel;html=1;align=center;verticalAlign=middle;resizable=0;points=[];" parent="N4C0Lz1YefWC-sI7x_0J-59" vertex="1" connectable="0">
          <mxGeometry y="-3" relative="1" as="geometry">
            <mxPoint x="3" y="15" as="offset" />
          </mxGeometry>
        </mxCell>
        <mxCell id="N4C0Lz1YefWC-sI7x_0J-65" value="" style="edgeStyle=none;orthogonalLoop=1;jettySize=auto;html=1;rounded=0;" parent="N4C0Lz1YefWC-sI7x_0J-1" source="N4C0Lz1YefWC-sI7x_0J-8" target="N4C0Lz1YefWC-sI7x_0J-2" edge="1">
          <mxGeometry width="80" relative="1" as="geometry">
            <mxPoint x="168" y="290" as="sourcePoint" />
            <mxPoint x="290" y="115" as="targetPoint" />
            <Array as="points" />
          </mxGeometry>
        </mxCell>
        <mxCell id="N4C0Lz1YefWC-sI7x_0J-72" value="Infra deploy" style="edgeLabel;html=1;align=center;verticalAlign=middle;resizable=0;points=[];" parent="N4C0Lz1YefWC-sI7x_0J-65" vertex="1" connectable="0">
          <mxGeometry x="-0.1667" y="1" relative="1" as="geometry">
            <mxPoint as="offset" />
          </mxGeometry>
        </mxCell>
        <mxCell id="N4C0Lz1YefWC-sI7x_0J-64" value="" style="edgeStyle=none;orthogonalLoop=1;jettySize=auto;html=1;rounded=0;entryX=0;entryY=0.5;entryDx=0;entryDy=0;" parent="N4C0Lz1YefWC-sI7x_0J-1" source="N4C0Lz1YefWC-sI7x_0J-8" target="N4C0Lz1YefWC-sI7x_0J-7" edge="1">
          <mxGeometry width="80" relative="1" as="geometry">
            <mxPoint x="240" y="340" as="sourcePoint" />
            <mxPoint x="320" y="340" as="targetPoint" />
            <Array as="points" />
          </mxGeometry>
        </mxCell>
        <mxCell id="N4C0Lz1YefWC-sI7x_0J-71" value="Infra deploy" style="edgeLabel;html=1;align=center;verticalAlign=middle;resizable=0;points=[];" parent="N4C0Lz1YefWC-sI7x_0J-64" vertex="1" connectable="0">
          <mxGeometry x="-0.0025" y="2" relative="1" as="geometry">
            <mxPoint as="offset" />
          </mxGeometry>
        </mxCell>
        <mxCell id="N4C0Lz1YefWC-sI7x_0J-48" style="edgeStyle=none;rounded=0;orthogonalLoop=1;jettySize=auto;html=1;" parent="1" source="N4C0Lz1YefWC-sI7x_0J-41" target="N4C0Lz1YefWC-sI7x_0J-21" edge="1">
          <mxGeometry relative="1" as="geometry" />
        </mxCell>
        <mxCell id="N4C0Lz1YefWC-sI7x_0J-41" value="User" style="sketch=0;outlineConnect=0;fontColor=#232F3E;gradientColor=none;strokeColor=#232F3E;fillColor=#ffffff;dashed=0;verticalLabelPosition=bottom;verticalAlign=top;align=center;html=1;fontSize=12;fontStyle=0;aspect=fixed;shape=mxgraph.aws4.resourceIcon;resIcon=mxgraph.aws4.user;" parent="1" vertex="1">
          <mxGeometry x="570" y="30" width="60" height="60" as="geometry" />
        </mxCell>
        <mxCell id="N4C0Lz1YefWC-sI7x_0J-66" style="edgeStyle=none;rounded=0;orthogonalLoop=1;jettySize=auto;html=1;" parent="1" source="N4C0Lz1YefWC-sI7x_0J-42" target="N4C0Lz1YefWC-sI7x_0J-9" edge="1">
          <mxGeometry relative="1" as="geometry" />
        </mxCell>
        <mxCell id="N4C0Lz1YefWC-sI7x_0J-42" value="Developer" style="sketch=0;outlineConnect=0;fontColor=#232F3E;gradientColor=none;strokeColor=#232F3E;fillColor=#ffffff;dashed=0;verticalLabelPosition=bottom;verticalAlign=top;align=center;html=1;fontSize=12;fontStyle=0;aspect=fixed;shape=mxgraph.aws4.resourceIcon;resIcon=mxgraph.aws4.user;" parent="1" vertex="1">
          <mxGeometry x="250" y="30" width="60" height="60" as="geometry" />
        </mxCell>
      </root>
    </mxGraphModel>
  </diagram>
</mxfile>
